<svg xmlns="http://www.w3.org/2000/svg" width="1200" height="630" viewBox="0 0 1200 630">
  <defs>
    <linearGradient id="court" x1="0" y1="0" x2="1" y2="1">
      <stop offset="0" stop-color="#bd672f"/>
      <stop offset="1" stop-color="#e3944d"/>
    </linearGradient>
    <linearGradient id="pitch" x1="0" y1="0" x2="1" y2="1">
      <stop offset="0" stop-color="#245d3d"/>
      <stop offset="1" stop-color="#3c8b58"/>
    </linearGradient>
  </defs>
  <rect width="1200" height="630" fill="#0d0f11"/>
  <path d="M0 0h460L330 630H0z" fill="url(#court)"/>
  <path d="M1200 0H740l130 630h330z" fill="url(#pitch)"/>
  <g opacity=".42" fill="none" stroke="#fff7e9" stroke-width="5">
    <path d="M24 40h375l-91 550H24z"/>
    <circle cx="215" cy="315" r="113"/>
    <path d="M81 40v166h247V40"/>
  </g>
  <g opacity=".42" fill="none" stroke="#f3f7f4" stroke-width="5">
    <path d="M801 40h375v550H892z"/>
    <path d="M801 205h269V40M892 425h218v165"/>
    <circle cx="1003" cy="315" r="86"/>
  </g>
  <rect x="444" y="86" width="312" height="458" rx="10" fill="#111417" stroke="#343940" stroke-width="3"/>
  <rect x="548" y="122" width="104" height="104" rx="22" fill="#e87532"/>
  <circle cx="600" cy="174" r="34" fill="none" stroke="#fffaf1" stroke-width="4"/>
  <path d="M567 164c22 5 44 4 67-4M575 201c16-14 36-24 60-29M598 141c-3 18-2 37 5 66" fill="none" stroke="#fffaf1" stroke-width="3" stroke-linecap="round"/>
  <text x="600" y="296" fill="#f5f1e8" font-family="Arial, Helvetica, sans-serif" font-size="58" font-weight="900" text-anchor="middle">YOUR FIVE</text>
  <text x="600" y="345" fill="#f0b35a" font-family="Arial, Helvetica, sans-serif" font-size="22" font-weight="800" text-anchor="middle" letter-spacing="3">BID. DRAFT. BUILD.</text>
  <line x1="502" y1="385" x2="698" y2="385" stroke="#343940" stroke-width="2"/>
  <text x="600" y="438" fill="#9ca3aa" font-family="Arial, Helvetica, sans-serif" font-size="22" font-weight="700" text-anchor="middle">BASKETBALL + FOOTBALL</text>
  <text x="600" y="476" fill="#f5f1e8" font-family="Arial, Helvetica, sans-serif" font-size="26" font-weight="900" text-anchor="middle">$20. FIVE SPOTS.</text>
</svg>
